<svg width="165" height="35" viewBox="0 0 165 35" fill="none" xmlns="http://www.w3.org/2000/svg">
<path d="M4.71875 5.25V28H0.03125V5.25H4.71875ZM18.3438 5.25L9.32812 16.4844L4.125 22.0781L3.28125 17.6406L6.79688 12.8281L12.5938 5.25H18.3438ZM13.0156 28L6.3125 17.4844L9.78125 14.5781L18.5625 28H13.0156ZM30.3906 11.0938H34.4688V27.4375C34.4688 28.9792 34.125 30.2865 33.4375 31.3594C32.7604 32.4427 31.8125 33.2604 30.5938 33.8125C29.375 34.375 27.9583 34.6562 26.3438 34.6562C25.6354 34.6562 24.8854 34.5625 24.0938 34.375C23.3125 34.1875 22.5625 33.8958 21.8438 33.5C21.1354 33.1042 20.5417 32.6042 20.0625 32L22.0469 29.3438C22.5677 29.9479 23.1719 30.4167 23.8594 30.75C24.5469 31.0938 25.3073 31.2656 26.1406 31.2656C26.9531 31.2656 27.6406 31.1146 28.2031 30.8125C28.7656 30.5208 29.1979 30.0885 29.5 29.5156C29.8021 28.9531 29.9531 28.2708 29.9531 27.4688V15L30.3906 11.0938ZM19.0156 19.75V19.4219C19.0156 18.1302 19.1719 16.9583 19.4844 15.9062C19.8073 14.8438 20.2604 13.9323 20.8438 13.1719C21.4375 12.4115 22.1562 11.8229 23 11.4062C23.8438 10.9896 24.7969 10.7812 25.8594 10.7812C26.9844 10.7812 27.9271 10.9896 28.6875 11.4062C29.4479 11.8229 30.0729 12.4167 30.5625 13.1875C31.0521 13.9479 31.4323 14.849 31.7031 15.8906C31.9844 16.9219 32.2031 18.0521 32.3594 19.2812V20C32.2031 21.1771 31.9688 22.2708 31.6562 23.2812C31.3438 24.2917 30.9323 25.1771 30.4219 25.9375C29.9115 26.6875 29.276 27.2708 28.5156 27.6875C27.7656 28.1042 26.8698 28.3125 25.8281 28.3125C24.7865 28.3125 23.8438 28.099 23 27.6719C22.1667 27.2448 21.4531 26.6458 20.8594 25.875C20.2656 25.1042 19.8073 24.1979 19.4844 23.1562C19.1719 22.1146 19.0156 20.9792 19.0156 19.75ZM23.5156 19.4219V19.75C23.5156 20.4479 23.5833 21.099 23.7188 21.7031C23.8542 22.3073 24.0625 22.8438 24.3438 23.3125C24.6354 23.7708 24.9948 24.1302 25.4219 24.3906C25.8594 24.6406 26.375 24.7656 26.9688 24.7656C27.7917 24.7656 28.4635 24.5938 28.9844 24.25C29.5052 23.8958 29.8958 23.4115 30.1562 22.7969C30.4167 22.1823 30.5677 21.474 30.6094 20.6719V18.625C30.5885 17.9688 30.5 17.3802 30.3438 16.8594C30.1875 16.3281 29.9688 15.875 29.6875 15.5C29.4062 15.125 29.0417 14.8333 28.5938 14.625C28.1458 14.4167 27.6146 14.3125 27 14.3125C26.4062 14.3125 25.8906 14.4479 25.4531 14.7188C25.026 14.9792 24.6667 15.3385 24.375 15.7969C24.0938 16.2552 23.8802 16.7969 23.7344 17.4219C23.5885 18.0365 23.5156 18.7031 23.5156 19.4219ZM47.6875 5.25L39.3438 29.9531H36L44.3438 5.25H47.6875ZM68.1898 0.863998V17.344C68.1898 17.696 68.0618 17.792 67.6778 17.824C67.2938 17.824 66.1098 17.824 64.9578 17.792C65.5018 18.816 66.0458 20.48 66.2058 21.536C68.1898 21.568 69.5978 21.44 70.6538 20.8C71.7418 20.16 72.0618 19.136 72.0618 17.376V0.863998H68.1898ZM63.4538 6.336C62.9418 9.888 61.8538 13.44 60.1898 15.648C61.1178 16.032 62.7498 16.928 63.4858 17.44C65.1178 14.976 66.3978 10.976 67.1018 6.944L63.4538 6.336ZM72.8618 7.104C74.3018 9.984 75.5498 13.888 75.9018 16.416L79.4538 15.2C79.0058 12.64 77.6938 8.896 76.1578 6.016L72.8618 7.104ZM74.1098 16.704C72.1258 23.168 67.8378 26.016 60.4458 27.328C61.2458 28.256 62.1418 29.728 62.5258 30.88C70.7818 28.864 75.5498 25.344 77.8218 17.632L74.1098 16.704ZM53.9818 3.808V30.848H57.7258V3.808H53.9818ZM49.3738 9.824V13.408H61.1178V9.824H49.3738ZM54.2058 11.264C53.1818 14.816 50.9418 19.456 48.7018 22.016C49.3098 22.976 50.1418 24.576 50.4938 25.696C52.9578 22.528 55.2298 16.832 56.4458 12.256L54.2058 11.264ZM58.9738 1.152C56.5098 2.272 52.5418 3.2 48.9898 3.808C49.4378 4.608 49.9178 5.888 50.0778 6.72C53.8218 6.24 58.2698 5.376 61.5338 4.128L58.9738 1.152ZM57.6298 14.272L55.9658 15.776C56.9578 17.12 58.8778 20.032 59.6458 21.568L61.8218 18.56C61.2138 17.824 58.4298 14.944 57.6298 14.272Z" fill="white"/>
<path d="M101.938 22.0469C101.938 21.6406 101.875 21.276 101.75 20.9531C101.635 20.6198 101.417 20.3177 101.094 20.0469C100.771 19.7656 100.318 19.4896 99.7344 19.2188C99.151 18.9479 98.3958 18.6667 97.4688 18.375C96.4375 18.0417 95.4583 17.6667 94.5312 17.25C93.6146 16.8333 92.8021 16.349 92.0938 15.7969C91.3958 15.2344 90.8438 14.5833 90.4375 13.8438C90.0417 13.1042 89.8438 12.2448 89.8438 11.2656C89.8438 10.3177 90.0521 9.45833 90.4688 8.6875C90.8854 7.90625 91.4688 7.23958 92.2188 6.6875C92.9688 6.125 93.8542 5.69271 94.875 5.39062C95.9062 5.08854 97.0365 4.9375 98.2656 4.9375C99.9427 4.9375 101.406 5.23958 102.656 5.84375C103.906 6.44792 104.875 7.27604 105.562 8.32812C106.26 9.38021 106.609 10.5833 106.609 11.9375H101.953C101.953 11.2708 101.812 10.6875 101.531 10.1875C101.26 9.67708 100.844 9.27604 100.281 8.98438C99.7292 8.69271 99.0312 8.54688 98.1875 8.54688C97.375 8.54688 96.6979 8.67188 96.1562 8.92188C95.6146 9.16146 95.2083 9.48958 94.9375 9.90625C94.6667 10.3125 94.5312 10.7708 94.5312 11.2812C94.5312 11.6667 94.625 12.0156 94.8125 12.3281C95.0104 12.6406 95.3021 12.9323 95.6875 13.2031C96.0729 13.474 96.5469 13.7292 97.1094 13.9688C97.6719 14.2083 98.3229 14.4427 99.0625 14.6719C100.302 15.0469 101.391 15.4688 102.328 15.9375C103.276 16.4062 104.068 16.9323 104.703 17.5156C105.339 18.099 105.818 18.7604 106.141 19.5C106.464 20.2396 106.625 21.0781 106.625 22.0156C106.625 23.0052 106.432 23.8906 106.047 24.6719C105.661 25.4531 105.104 26.1146 104.375 26.6562C103.646 27.1979 102.776 27.6094 101.766 27.8906C100.755 28.1719 99.625 28.3125 98.375 28.3125C97.25 28.3125 96.1406 28.1667 95.0469 27.875C93.9531 27.5729 92.9583 27.1198 92.0625 26.5156C91.1771 25.9115 90.4688 25.1406 89.9375 24.2031C89.4062 23.2656 89.1406 22.1562 89.1406 20.875H93.8438C93.8438 21.5833 93.9531 22.1823 94.1719 22.6719C94.3906 23.1615 94.6979 23.5573 95.0938 23.8594C95.5 24.1615 95.9792 24.3802 96.5312 24.5156C97.0938 24.651 97.7083 24.7188 98.375 24.7188C99.1875 24.7188 99.8542 24.6042 100.375 24.375C100.906 24.1458 101.297 23.8281 101.547 23.4219C101.807 23.0156 101.938 22.5573 101.938 22.0469ZM117.812 11.0938V14.2812H107.969V11.0938H117.812ZM110.406 6.92188H114.906V22.9062C114.906 23.3958 114.969 23.7708 115.094 24.0312C115.229 24.2917 115.427 24.474 115.688 24.5781C115.948 24.6719 116.276 24.7188 116.672 24.7188C116.953 24.7188 117.203 24.7083 117.422 24.6875C117.651 24.6562 117.844 24.625 118 24.5938L118.016 27.9062C117.63 28.0312 117.214 28.1302 116.766 28.2031C116.318 28.276 115.823 28.3125 115.281 28.3125C114.292 28.3125 113.427 28.151 112.688 27.8281C111.958 27.4948 111.396 26.9635 111 26.2344C110.604 25.5052 110.406 24.5469 110.406 23.3594V6.92188ZM119.25 19.7188V19.3906C119.25 18.151 119.427 17.0104 119.781 15.9688C120.135 14.9167 120.651 14.0052 121.328 13.2344C122.005 12.4635 122.839 11.8646 123.828 11.4375C124.818 11 125.953 10.7812 127.234 10.7812C128.516 10.7812 129.656 11 130.656 11.4375C131.656 11.8646 132.495 12.4635 133.172 13.2344C133.859 14.0052 134.38 14.9167 134.734 15.9688C135.089 17.0104 135.266 18.151 135.266 19.3906V19.7188C135.266 20.9479 135.089 22.0885 134.734 23.1406C134.38 24.1823 133.859 25.0938 133.172 25.875C132.495 26.6458 131.661 27.2448 130.672 27.6719C129.682 28.099 128.547 28.3125 127.266 28.3125C125.984 28.3125 124.844 28.099 123.844 27.6719C122.854 27.2448 122.016 26.6458 121.328 25.875C120.651 25.0938 120.135 24.1823 119.781 23.1406C119.427 22.0885 119.25 20.9479 119.25 19.7188ZM123.75 19.3906V19.7188C123.75 20.4271 123.812 21.0885 123.938 21.7031C124.062 22.3177 124.26 22.8594 124.531 23.3281C124.812 23.7865 125.177 24.1458 125.625 24.4062C126.073 24.6667 126.62 24.7969 127.266 24.7969C127.891 24.7969 128.427 24.6667 128.875 24.4062C129.323 24.1458 129.682 23.7865 129.953 23.3281C130.224 22.8594 130.422 22.3177 130.547 21.7031C130.682 21.0885 130.75 20.4271 130.75 19.7188V19.3906C130.75 18.7031 130.682 18.0573 130.547 17.4531C130.422 16.8385 130.219 16.2969 129.938 15.8281C129.667 15.349 129.307 14.974 128.859 14.7031C128.411 14.4323 127.87 14.2969 127.234 14.2969C126.599 14.2969 126.057 14.4323 125.609 14.7031C125.172 14.974 124.812 15.349 124.531 15.8281C124.26 16.2969 124.062 16.8385 123.938 17.4531C123.812 18.0573 123.75 18.7031 123.75 19.3906ZM142.531 14.7812V28H138.031V11.0938H142.266L142.531 14.7812ZM147.625 10.9844L147.547 15.1562C147.328 15.125 147.062 15.099 146.75 15.0781C146.448 15.0469 146.172 15.0312 145.922 15.0312C145.286 15.0312 144.734 15.1146 144.266 15.2812C143.807 15.4375 143.422 15.6719 143.109 15.9844C142.807 16.2969 142.578 16.6771 142.422 17.125C142.276 17.5729 142.193 18.0833 142.172 18.6562L141.266 18.375C141.266 17.2812 141.375 16.276 141.594 15.3594C141.812 14.4323 142.13 13.625 142.547 12.9375C142.974 12.25 143.495 11.7188 144.109 11.3438C144.724 10.9688 145.427 10.7812 146.219 10.7812C146.469 10.7812 146.724 10.8021 146.984 10.8438C147.245 10.875 147.458 10.9219 147.625 10.9844ZM157.219 28.3125C155.906 28.3125 154.729 28.1042 153.688 27.6875C152.646 27.2604 151.76 26.6719 151.031 25.9219C150.312 25.1719 149.76 24.3021 149.375 23.3125C148.99 22.3125 148.797 21.25 148.797 20.125V19.5C148.797 18.2188 148.979 17.0469 149.344 15.9844C149.708 14.9219 150.229 14 150.906 13.2188C151.594 12.4375 152.427 11.8385 153.406 11.4219C154.385 10.9948 155.49 10.7812 156.719 10.7812C157.917 10.7812 158.979 10.9792 159.906 11.375C160.833 11.7708 161.609 12.3333 162.234 13.0625C162.87 13.7917 163.349 14.6667 163.672 15.6875C163.995 16.6979 164.156 17.8229 164.156 19.0625V20.9375H150.719V17.9375H159.734V17.5938C159.734 16.9688 159.62 16.4115 159.391 15.9219C159.172 15.4219 158.839 15.026 158.391 14.7344C157.943 14.4427 157.37 14.2969 156.672 14.2969C156.078 14.2969 155.568 14.4271 155.141 14.6875C154.714 14.9479 154.365 15.3125 154.094 15.7812C153.833 16.25 153.635 16.8021 153.5 17.4375C153.375 18.0625 153.312 18.75 153.312 19.5V20.125C153.312 20.8021 153.406 21.4271 153.594 22C153.792 22.5729 154.068 23.0677 154.422 23.4844C154.786 23.901 155.224 24.224 155.734 24.4531C156.255 24.6823 156.844 24.7969 157.5 24.7969C158.312 24.7969 159.068 24.6406 159.766 24.3281C160.474 24.0052 161.083 23.5208 161.594 22.875L163.781 25.25C163.427 25.7604 162.943 26.25 162.328 26.7188C161.724 27.1875 160.995 27.5729 160.141 27.875C159.286 28.1667 158.312 28.3125 157.219 28.3125Z" fill="#FF8C32"/>
</svg>
