<svg width="240" height="35" viewBox="0 0 240 35" fill="none" xmlns="http://www.w3.org/2000/svg">
<path d="M10.2344 23.25L15.5938 5.25H20.8125L12.8906 28H9.45312L10.2344 23.25ZM5.29688 5.25L10.6406 23.25L11.4531 28H7.98438L0.109375 5.25H5.29688ZM27.4062 11.0938V28H22.8906V11.0938H27.4062ZM22.6094 6.6875C22.6094 6.03125 22.8385 5.48958 23.2969 5.0625C23.7552 4.63542 24.3698 4.42188 25.1406 4.42188C25.901 4.42188 26.5104 4.63542 26.9688 5.0625C27.4375 5.48958 27.6719 6.03125 27.6719 6.6875C27.6719 7.34375 27.4375 7.88542 26.9688 8.3125C26.5104 8.73958 25.901 8.95312 25.1406 8.95312C24.3698 8.95312 23.7552 8.73958 23.2969 8.3125C22.8385 7.88542 22.6094 7.34375 22.6094 6.6875ZM40.2656 23.3281C40.2656 23.0052 40.1719 22.7135 39.9844 22.4531C39.7969 22.1927 39.4479 21.9531 38.9375 21.7344C38.4375 21.5052 37.7135 21.2969 36.7656 21.1094C35.9115 20.9219 35.1146 20.6875 34.375 20.4062C33.6458 20.1146 33.0104 19.7656 32.4688 19.3594C31.9375 18.9531 31.5208 18.474 31.2188 17.9219C30.9167 17.3594 30.7656 16.7188 30.7656 16C30.7656 15.2917 30.9167 14.625 31.2188 14C31.5312 13.375 31.974 12.8229 32.5469 12.3438C33.1302 11.8542 33.8385 11.474 34.6719 11.2031C35.5156 10.9219 36.4635 10.7812 37.5156 10.7812C38.9844 10.7812 40.2448 11.0156 41.2969 11.4844C42.3594 11.9531 43.1719 12.599 43.7344 13.4219C44.3073 14.2344 44.5938 15.1615 44.5938 16.2031H40.0938C40.0938 15.7656 40 15.375 39.8125 15.0312C39.6354 14.6771 39.3542 14.401 38.9688 14.2031C38.5938 13.9948 38.1042 13.8906 37.5 13.8906C37 13.8906 36.5677 13.9792 36.2031 14.1562C35.8385 14.3229 35.5573 14.5521 35.3594 14.8438C35.1719 15.125 35.0781 15.4375 35.0781 15.7812C35.0781 16.0417 35.1302 16.276 35.2344 16.4844C35.349 16.6823 35.5312 16.8646 35.7812 17.0312C36.0312 17.1979 36.3542 17.3542 36.75 17.5C37.1562 17.6354 37.6562 17.7604 38.25 17.875C39.4688 18.125 40.5573 18.4531 41.5156 18.8594C42.474 19.2552 43.2344 19.7969 43.7969 20.4844C44.3594 21.1615 44.6406 22.0521 44.6406 23.1562C44.6406 23.9062 44.474 24.5938 44.1406 25.2188C43.8073 25.8438 43.3281 26.3906 42.7031 26.8594C42.0781 27.3177 41.3281 27.6771 40.4531 27.9375C39.5885 28.1875 38.6146 28.3125 37.5312 28.3125C35.9583 28.3125 34.625 28.0312 33.5312 27.4688C32.4479 26.9062 31.625 26.1927 31.0625 25.3281C30.5104 24.4531 30.2344 23.5573 30.2344 22.6406H34.5C34.5208 23.2552 34.6771 23.75 34.9688 24.125C35.2708 24.5 35.651 24.7708 36.1094 24.9375C36.5781 25.1042 37.0833 25.1875 37.625 25.1875C38.2083 25.1875 38.6927 25.1094 39.0781 24.9531C39.4635 24.7865 39.7552 24.5677 39.9531 24.2969C40.1615 24.0156 40.2656 23.6927 40.2656 23.3281ZM52.3125 11.0938V28H47.7969V11.0938H52.3125ZM47.5156 6.6875C47.5156 6.03125 47.7448 5.48958 48.2031 5.0625C48.6615 4.63542 49.276 4.42188 50.0469 4.42188C50.8073 4.42188 51.4167 4.63542 51.875 5.0625C52.3438 5.48958 52.5781 6.03125 52.5781 6.6875C52.5781 7.34375 52.3438 7.88542 51.875 8.3125C51.4167 8.73958 50.8073 8.95312 50.0469 8.95312C49.276 8.95312 48.6615 8.73958 48.2031 8.3125C47.7448 7.88542 47.5156 7.34375 47.5156 6.6875ZM64.3125 11.0938V14.2812H54.4688V11.0938H64.3125ZM56.9062 6.92188H61.4062V22.9062C61.4062 23.3958 61.4688 23.7708 61.5938 24.0312C61.7292 24.2917 61.9271 24.474 62.1875 24.5781C62.4479 24.6719 62.776 24.7188 63.1719 24.7188C63.4531 24.7188 63.7031 24.7083 63.9219 24.6875C64.151 24.6562 64.3438 24.625 64.5 24.5938L64.5156 27.9062C64.1302 28.0312 63.7135 28.1302 63.2656 28.2031C62.8177 28.276 62.3229 28.3125 61.7812 28.3125C60.7917 28.3125 59.9271 28.151 59.1875 27.8281C58.4583 27.4948 57.8958 26.9635 57.5 26.2344C57.1042 25.5052 56.9062 24.5469 56.9062 23.3594V6.92188ZM79.8125 5.25V28H75.125V5.25H79.8125ZM93.4375 5.25L84.4219 16.4844L79.2188 22.0781L78.375 17.6406L81.8906 12.8281L87.6875 5.25H93.4375ZM88.1094 28L81.4062 17.4844L84.875 14.5781L93.6562 28H88.1094ZM105.484 11.0938H109.562V27.4375C109.562 28.9792 109.219 30.2865 108.531 31.3594C107.854 32.4427 106.906 33.2604 105.688 33.8125C104.469 34.375 103.052 34.6562 101.438 34.6562C100.729 34.6562 99.9792 34.5625 99.1875 34.375C98.4062 34.1875 97.6562 33.8958 96.9375 33.5C96.2292 33.1042 95.6354 32.6042 95.1562 32L97.1406 29.3438C97.6615 29.9479 98.2656 30.4167 98.9531 30.75C99.6406 31.0938 100.401 31.2656 101.234 31.2656C102.047 31.2656 102.734 31.1146 103.297 30.8125C103.859 30.5208 104.292 30.0885 104.594 29.5156C104.896 28.9531 105.047 28.2708 105.047 27.4688V15L105.484 11.0938ZM94.1094 19.75V19.4219C94.1094 18.1302 94.2656 16.9583 94.5781 15.9062C94.901 14.8438 95.3542 13.9323 95.9375 13.1719C96.5312 12.4115 97.25 11.8229 98.0938 11.4062C98.9375 10.9896 99.8906 10.7812 100.953 10.7812C102.078 10.7812 103.021 10.9896 103.781 11.4062C104.542 11.8229 105.167 12.4167 105.656 13.1875C106.146 13.9479 106.526 14.849 106.797 15.8906C107.078 16.9219 107.297 18.0521 107.453 19.2812V20C107.297 21.1771 107.062 22.2708 106.75 23.2812C106.438 24.2917 106.026 25.1771 105.516 25.9375C105.005 26.6875 104.37 27.2708 103.609 27.6875C102.859 28.1042 101.964 28.3125 100.922 28.3125C99.8802 28.3125 98.9375 28.099 98.0938 27.6719C97.2604 27.2448 96.5469 26.6458 95.9531 25.875C95.3594 25.1042 94.901 24.1979 94.5781 23.1562C94.2656 22.1146 94.1094 20.9792 94.1094 19.75ZM98.6094 19.4219V19.75C98.6094 20.4479 98.6771 21.099 98.8125 21.7031C98.9479 22.3073 99.1562 22.8438 99.4375 23.3125C99.7292 23.7708 100.089 24.1302 100.516 24.3906C100.953 24.6406 101.469 24.7656 102.062 24.7656C102.885 24.7656 103.557 24.5938 104.078 24.25C104.599 23.8958 104.99 23.4115 105.25 22.7969C105.51 22.1823 105.661 21.474 105.703 20.6719V18.625C105.682 17.9688 105.594 17.3802 105.438 16.8594C105.281 16.3281 105.062 15.875 104.781 15.5C104.5 15.125 104.135 14.8333 103.688 14.625C103.24 14.4167 102.708 14.3125 102.094 14.3125C101.5 14.3125 100.984 14.4479 100.547 14.7188C100.12 14.9792 99.7604 15.3385 99.4688 15.7969C99.1875 16.2552 98.974 16.7969 98.8281 17.4219C98.6823 18.0365 98.6094 18.7031 98.6094 19.4219ZM122.781 5.25L114.438 29.9531H111.094L119.438 5.25H122.781ZM143.284 0.863998V17.344C143.284 17.696 143.156 17.792 142.772 17.824C142.388 17.824 141.204 17.824 140.052 17.792C140.596 18.816 141.14 20.48 141.3 21.536C143.284 21.568 144.692 21.44 145.748 20.8C146.836 20.16 147.156 19.136 147.156 17.376V0.863998H143.284ZM138.548 6.336C138.036 9.888 136.948 13.44 135.284 15.648C136.212 16.032 137.844 16.928 138.58 17.44C140.212 14.976 141.492 10.976 142.196 6.944L138.548 6.336ZM147.956 7.104C149.396 9.984 150.644 13.888 150.996 16.416L154.548 15.2C154.1 12.64 152.788 8.896 151.252 6.016L147.956 7.104ZM149.204 16.704C147.22 23.168 142.932 26.016 135.54 27.328C136.34 28.256 137.236 29.728 137.62 30.88C145.876 28.864 150.644 25.344 152.916 17.632L149.204 16.704ZM129.076 3.808V30.848H132.82V3.808H129.076ZM124.468 9.824V13.408H136.212V9.824H124.468ZM129.3 11.264C128.276 14.816 126.036 19.456 123.796 22.016C124.404 22.976 125.236 24.576 125.588 25.696C128.052 22.528 130.324 16.832 131.54 12.256L129.3 11.264ZM134.068 1.152C131.604 2.272 127.636 3.2 124.084 3.808C124.532 4.608 125.012 5.888 125.172 6.72C128.916 6.24 133.364 5.376 136.628 4.128L134.068 1.152ZM132.724 14.272L131.06 15.776C132.052 17.12 133.972 20.032 134.74 21.568L136.916 18.56C136.308 17.824 133.524 14.944 132.724 14.272Z" fill="white"/>
<path d="M177.031 22.0469C177.031 21.6406 176.969 21.276 176.844 20.9531C176.729 20.6198 176.51 20.3177 176.188 20.0469C175.865 19.7656 175.411 19.4896 174.828 19.2188C174.245 18.9479 173.49 18.6667 172.562 18.375C171.531 18.0417 170.552 17.6667 169.625 17.25C168.708 16.8333 167.896 16.349 167.188 15.7969C166.49 15.2344 165.938 14.5833 165.531 13.8438C165.135 13.1042 164.938 12.2448 164.938 11.2656C164.938 10.3177 165.146 9.45833 165.562 8.6875C165.979 7.90625 166.562 7.23958 167.312 6.6875C168.062 6.125 168.948 5.69271 169.969 5.39062C171 5.08854 172.13 4.9375 173.359 4.9375C175.036 4.9375 176.5 5.23958 177.75 5.84375C179 6.44792 179.969 7.27604 180.656 8.32812C181.354 9.38021 181.703 10.5833 181.703 11.9375H177.047C177.047 11.2708 176.906 10.6875 176.625 10.1875C176.354 9.67708 175.938 9.27604 175.375 8.98438C174.823 8.69271 174.125 8.54688 173.281 8.54688C172.469 8.54688 171.792 8.67188 171.25 8.92188C170.708 9.16146 170.302 9.48958 170.031 9.90625C169.76 10.3125 169.625 10.7708 169.625 11.2812C169.625 11.6667 169.719 12.0156 169.906 12.3281C170.104 12.6406 170.396 12.9323 170.781 13.2031C171.167 13.474 171.641 13.7292 172.203 13.9688C172.766 14.2083 173.417 14.4427 174.156 14.6719C175.396 15.0469 176.484 15.4688 177.422 15.9375C178.37 16.4062 179.161 16.9323 179.797 17.5156C180.432 18.099 180.911 18.7604 181.234 19.5C181.557 20.2396 181.719 21.0781 181.719 22.0156C181.719 23.0052 181.526 23.8906 181.141 24.6719C180.755 25.4531 180.198 26.1146 179.469 26.6562C178.74 27.1979 177.87 27.6094 176.859 27.8906C175.849 28.1719 174.719 28.3125 173.469 28.3125C172.344 28.3125 171.234 28.1667 170.141 27.875C169.047 27.5729 168.052 27.1198 167.156 26.5156C166.271 25.9115 165.562 25.1406 165.031 24.2031C164.5 23.2656 164.234 22.1562 164.234 20.875H168.938C168.938 21.5833 169.047 22.1823 169.266 22.6719C169.484 23.1615 169.792 23.5573 170.188 23.8594C170.594 24.1615 171.073 24.3802 171.625 24.5156C172.188 24.651 172.802 24.7188 173.469 24.7188C174.281 24.7188 174.948 24.6042 175.469 24.375C176 24.1458 176.391 23.8281 176.641 23.4219C176.901 23.0156 177.031 22.5573 177.031 22.0469ZM192.906 11.0938V14.2812H183.062V11.0938H192.906ZM185.5 6.92188H190V22.9062C190 23.3958 190.062 23.7708 190.188 24.0312C190.323 24.2917 190.521 24.474 190.781 24.5781C191.042 24.6719 191.37 24.7188 191.766 24.7188C192.047 24.7188 192.297 24.7083 192.516 24.6875C192.745 24.6562 192.938 24.625 193.094 24.5938L193.109 27.9062C192.724 28.0312 192.307 28.1302 191.859 28.2031C191.411 28.276 190.917 28.3125 190.375 28.3125C189.385 28.3125 188.521 28.151 187.781 27.8281C187.052 27.4948 186.49 26.9635 186.094 26.2344C185.698 25.5052 185.5 24.5469 185.5 23.3594V6.92188ZM194.344 19.7188V19.3906C194.344 18.151 194.521 17.0104 194.875 15.9688C195.229 14.9167 195.745 14.0052 196.422 13.2344C197.099 12.4635 197.932 11.8646 198.922 11.4375C199.911 11 201.047 10.7812 202.328 10.7812C203.609 10.7812 204.75 11 205.75 11.4375C206.75 11.8646 207.589 12.4635 208.266 13.2344C208.953 14.0052 209.474 14.9167 209.828 15.9688C210.182 17.0104 210.359 18.151 210.359 19.3906V19.7188C210.359 20.9479 210.182 22.0885 209.828 23.1406C209.474 24.1823 208.953 25.0938 208.266 25.875C207.589 26.6458 206.755 27.2448 205.766 27.6719C204.776 28.099 203.641 28.3125 202.359 28.3125C201.078 28.3125 199.938 28.099 198.938 27.6719C197.948 27.2448 197.109 26.6458 196.422 25.875C195.745 25.0938 195.229 24.1823 194.875 23.1406C194.521 22.0885 194.344 20.9479 194.344 19.7188ZM198.844 19.3906V19.7188C198.844 20.4271 198.906 21.0885 199.031 21.7031C199.156 22.3177 199.354 22.8594 199.625 23.3281C199.906 23.7865 200.271 24.1458 200.719 24.4062C201.167 24.6667 201.714 24.7969 202.359 24.7969C202.984 24.7969 203.521 24.6667 203.969 24.4062C204.417 24.1458 204.776 23.7865 205.047 23.3281C205.318 22.8594 205.516 22.3177 205.641 21.7031C205.776 21.0885 205.844 20.4271 205.844 19.7188V19.3906C205.844 18.7031 205.776 18.0573 205.641 17.4531C205.516 16.8385 205.312 16.2969 205.031 15.8281C204.76 15.349 204.401 14.974 203.953 14.7031C203.505 14.4323 202.964 14.2969 202.328 14.2969C201.693 14.2969 201.151 14.4323 200.703 14.7031C200.266 14.974 199.906 15.349 199.625 15.8281C199.354 16.2969 199.156 16.8385 199.031 17.4531C198.906 18.0573 198.844 18.7031 198.844 19.3906ZM217.625 14.7812V28H213.125V11.0938H217.359L217.625 14.7812ZM222.719 10.9844L222.641 15.1562C222.422 15.125 222.156 15.099 221.844 15.0781C221.542 15.0469 221.266 15.0312 221.016 15.0312C220.38 15.0312 219.828 15.1146 219.359 15.2812C218.901 15.4375 218.516 15.6719 218.203 15.9844C217.901 16.2969 217.672 16.6771 217.516 17.125C217.37 17.5729 217.286 18.0833 217.266 18.6562L216.359 18.375C216.359 17.2812 216.469 16.276 216.688 15.3594C216.906 14.4323 217.224 13.625 217.641 12.9375C218.068 12.25 218.589 11.7188 219.203 11.3438C219.818 10.9688 220.521 10.7812 221.312 10.7812C221.562 10.7812 221.818 10.8021 222.078 10.8438C222.339 10.875 222.552 10.9219 222.719 10.9844ZM232.312 28.3125C231 28.3125 229.823 28.1042 228.781 27.6875C227.74 27.2604 226.854 26.6719 226.125 25.9219C225.406 25.1719 224.854 24.3021 224.469 23.3125C224.083 22.3125 223.891 21.25 223.891 20.125V19.5C223.891 18.2188 224.073 17.0469 224.438 15.9844C224.802 14.9219 225.323 14 226 13.2188C226.688 12.4375 227.521 11.8385 228.5 11.4219C229.479 10.9948 230.583 10.7812 231.812 10.7812C233.01 10.7812 234.073 10.9792 235 11.375C235.927 11.7708 236.703 12.3333 237.328 13.0625C237.964 13.7917 238.443 14.6667 238.766 15.6875C239.089 16.6979 239.25 17.8229 239.25 19.0625V20.9375H225.812V17.9375H234.828V17.5938C234.828 16.9688 234.714 16.4115 234.484 15.9219C234.266 15.4219 233.932 15.026 233.484 14.7344C233.036 14.4427 232.464 14.2969 231.766 14.2969C231.172 14.2969 230.661 14.4271 230.234 14.6875C229.807 14.9479 229.458 15.3125 229.188 15.7812C228.927 16.25 228.729 16.8021 228.594 17.4375C228.469 18.0625 228.406 18.75 228.406 19.5V20.125C228.406 20.8021 228.5 21.4271 228.688 22C228.885 22.5729 229.161 23.0677 229.516 23.4844C229.88 23.901 230.318 24.224 230.828 24.4531C231.349 24.6823 231.938 24.7969 232.594 24.7969C233.406 24.7969 234.161 24.6406 234.859 24.3281C235.568 24.0052 236.177 23.5208 236.688 22.875L238.875 25.25C238.521 25.7604 238.036 26.25 237.422 26.7188C236.818 27.1875 236.089 27.5729 235.234 27.875C234.38 28.1667 233.406 28.3125 232.312 28.3125Z" fill="#FF8C32"/>
</svg>
